<?xml version="1.0" encoding="utf-8" standalone="no"?>
<!DOCTYPE svg PUBLIC "-//W3C//DTD SVG 1.1//EN"
  "http://www.w3.org/Graphics/SVG/1.1/DTD/svg11.dtd">
<svg xmlns:xlink="http://www.w3.org/1999/xlink" width="460.8pt" height="345.6pt" viewBox="0 0 460.8 345.6" xmlns="http://www.w3.org/2000/svg" version="1.1">
 <metadata>
  <rdf:RDF xmlns:dc="http://purl.org/dc/elements/1.1/" xmlns:cc="http://creativecommons.org/ns#" xmlns:rdf="http://www.w3.org/1999/02/22-rdf-syntax-ns#">
   <cc:Work>
    <dc:type rdf:resource="http://purl.org/dc/dcmitype/StillImage"/>
    <dc:date>2023-04-02T23:34:33.194812</dc:date>
    <dc:format>image/svg+xml</dc:format>
    <dc:creator>
     <cc:Agent>
      <dc:title>Matplotlib v3.6.3, https://matplotlib.org/</dc:title>
     </cc:Agent>
    </dc:creator>
   </cc:Work>
  </rdf:RDF>
 </metadata>
 <defs>
  <style type="text/css">*{stroke-linejoin: round; stroke-linecap: butt}</style>
 </defs>
 <g id="figure_1">
  <g id="patch_1">
   <path d="M 0 345.6 
L 460.8 345.6 
L 460.8 0 
L 0 0 
z
" style="fill: #ffffff"/>
  </g>
  <g id="axes_1">
   <g id="patch_2">
    <path d="M 57.6 307.584 
L 414.72 307.584 
L 414.72 41.472 
L 57.6 41.472 
z
" style="fill: #ffffff"/>
   </g>
   <g id="PathCollection_1">
    <defs>
     <path id="m08db406496" d="M 0 3 
C 0.795609 3 1.55874 2.683901 2.12132 2.12132 
C 2.683901 1.55874 3 0.795609 3 0 
C 3 -0.795609 2.683901 -1.55874 2.12132 -2.12132 
C 1.55874 -2.683901 0.795609 -3 0 -3 
C -0.795609 -3 -1.55874 -2.683901 -2.12132 -2.12132 
C -2.683901 -1.55874 -3 -0.795609 -3 0 
C -3 0.795609 -2.683901 1.55874 -2.12132 2.12132 
C -1.55874 2.683901 -0.795609 3 0 3 
z
" style="stroke: #ffa500"/>
    </defs>
    <g clip-path="url(#p56c7e9026c)">
     <use xlink:href="#m08db406496" x="73.832727" y="295.484367" style="fill: #ffa500; stroke: #ffa500"/>
     <use xlink:href="#m08db406496" x="74.003688" y="295.453035" style="fill: #ffa500; stroke: #ffa500"/>
     <use xlink:href="#m08db406496" x="74.174649" y="295.408232" style="fill: #ffa500; stroke: #ffa500"/>
     <use xlink:href="#m08db406496" x="74.34561" y="295.363731" style="fill: #ffa500; stroke: #ffa500"/>
     <use xlink:href="#m08db406496" x="74.51657" y="295.322561" style="fill: #ffa500; stroke: #ffa500"/>
     <use xlink:href="#m08db406496" x="74.687531" y="295.271552" style="fill: #ffa500; stroke: #ffa500"/>
     <use xlink:href="#m08db406496" x="74.858492" y="295.212369" style="fill: #ffa500; stroke: #ffa500"/>
     <use xlink:href="#m08db406496" x="75.029453" y="295.14645" style="fill: #ffa500; stroke: #ffa500"/>
     <use xlink:href="#m08db406496" x="75.200414" y="295.095744" style="fill: #ffa500; stroke: #ffa500"/>
     <use xlink:href="#m08db406496" x="75.371374" y="295.046551" style="fill: #ffa500; stroke: #ffa500"/>
     <use xlink:href="#m08db406496" x="75.542335" y="294.99085" style="fill: #ffa500; stroke: #ffa500"/>
     <use xlink:href="#m08db406496" x="75.713296" y="294.919028" style="fill: #ffa500; stroke: #ffa500"/>
     <use xlink:href="#m08db406496" x="75.884257" y="294.887242" style="fill: #ffa500; stroke: #ffa500"/>
     <use xlink:href="#m08db406496" x="76.055218" y="294.801268" style="fill: #ffa500; stroke: #ffa500"/>
     <use xlink:href="#m08db406496" x="76.226178" y="294.754497" style="fill: #ffa500; stroke: #ffa500"/>
     <use xlink:href="#m08db406496" x="76.397139" y="294.67768" style="fill: #ffa500; stroke: #ffa500"/>
     <use xlink:href="#m08db406496" x="76.5681" y="294.60268" style="fill: #ffa500; stroke: #ffa500"/>
     <use xlink:href="#m08db406496" x="76.739061" y="294.551898" style="fill: #ffa500; stroke: #ffa500"/>
     <use xlink:href="#m08db406496" x="76.910022" y="294.473568" style="fill: #ffa500; stroke: #ffa500"/>
     <use xlink:href="#m08db406496" x="77.080982" y="294.404017" style="fill: #ffa500; stroke: #ffa500"/>
     <use xlink:href="#m08db406496" x="90.757846" y="287.737934" style="fill: #ffa500; stroke: #ffa500"/>
     <use xlink:href="#m08db406496" x="107.853925" y="278.416799" style="fill: #ffa500; stroke: #ffa500"/>
     <use xlink:href="#m08db406496" x="124.950004" y="268.012136" style="fill: #ffa500; stroke: #ffa500"/>
     <use xlink:href="#m08db406496" x="142.046084" y="256.38628" style="fill: #ffa500; stroke: #ffa500"/>
     <use xlink:href="#m08db406496" x="159.142163" y="247.314439" style="fill: #ffa500; stroke: #ffa500"/>
     <use xlink:href="#m08db406496" x="176.238242" y="234.507955" style="fill: #ffa500; stroke: #ffa500"/>
     <use xlink:href="#m08db406496" x="193.334321" y="223.841359" style="fill: #ffa500; stroke: #ffa500"/>
     <use xlink:href="#m08db406496" x="210.430401" y="212.107883" style="fill: #ffa500; stroke: #ffa500"/>
     <use xlink:href="#m08db406496" x="227.52648" y="198.099429" style="fill: #ffa500; stroke: #ffa500"/>
     <use xlink:href="#m08db406496" x="244.622559" y="188.940404" style="fill: #ffa500; stroke: #ffa500"/>
     <use xlink:href="#m08db406496" x="261.718639" y="176.775999" style="fill: #ffa500; stroke: #ffa500"/>
     <use xlink:href="#m08db406496" x="278.814718" y="163.598449" style="fill: #ffa500; stroke: #ffa500"/>
     <use xlink:href="#m08db406496" x="295.910797" y="151.552107" style="fill: #ffa500; stroke: #ffa500"/>
     <use xlink:href="#m08db406496" x="313.006876" y="138.290324" style="fill: #ffa500; stroke: #ffa500"/>
     <use xlink:href="#m08db406496" x="330.102956" y="126.376122" style="fill: #ffa500; stroke: #ffa500"/>
     <use xlink:href="#m08db406496" x="347.199035" y="114.377308" style="fill: #ffa500; stroke: #ffa500"/>
     <use xlink:href="#m08db406496" x="364.295114" y="96.507897" style="fill: #ffa500; stroke: #ffa500"/>
     <use xlink:href="#m08db406496" x="381.391193" y="86.458709" style="fill: #ffa500; stroke: #ffa500"/>
     <use xlink:href="#m08db406496" x="398.487273" y="73.281159" style="fill: #ffa500; stroke: #ffa500"/>
    </g>
   </g>
   <g id="PathCollection_2">
    <defs>
     <path id="m6e230f4583" d="M 0 3 
C 0.795609 3 1.55874 2.683901 2.12132 2.12132 
C 2.683901 1.55874 3 0.795609 3 0 
C 3 -0.795609 2.683901 -1.55874 2.12132 -2.12132 
C 1.55874 -2.683901 0.795609 -3 0 -3 
C -0.795609 -3 -1.55874 -2.683901 -2.12132 -2.12132 
C -2.683901 -1.55874 -3 -0.795609 -3 0 
C -3 0.795609 -2.683901 1.55874 -2.12132 2.12132 
C -1.55874 2.683901 -0.795609 3 0 3 
z
" style="stroke: #ff0000"/>
    </defs>
    <g clip-path="url(#p56c7e9026c)">
     <use xlink:href="#m6e230f4583" x="73.832727" y="295.488" style="fill: #ff0000; stroke: #ff0000"/>
     <use xlink:href="#m6e230f4583" x="74.003688" y="295.466734" style="fill: #ff0000; stroke: #ff0000"/>
     <use xlink:href="#m6e230f4583" x="74.174649" y="295.44471" style="fill: #ff0000; stroke: #ff0000"/>
     <use xlink:href="#m6e230f4583" x="74.34561" y="295.416935" style="fill: #ff0000; stroke: #ff0000"/>
     <use xlink:href="#m6e230f4583" x="74.51657" y="295.394988" style="fill: #ff0000; stroke: #ff0000"/>
     <use xlink:href="#m6e230f4583" x="74.687531" y="295.360931" style="fill: #ff0000; stroke: #ff0000"/>
     <use xlink:href="#m6e230f4583" x="74.858492" y="295.32082" style="fill: #ff0000; stroke: #ff0000"/>
     <use xlink:href="#m6e230f4583" x="75.029453" y="295.314084" style="fill: #ff0000; stroke: #ff0000"/>
     <use xlink:href="#m6e230f4583" x="75.200414" y="295.267616" style="fill: #ff0000; stroke: #ff0000"/>
     <use xlink:href="#m6e230f4583" x="75.371374" y="295.246425" style="fill: #ff0000; stroke: #ff0000"/>
     <use xlink:href="#m6e230f4583" x="75.542335" y="295.221829" style="fill: #ff0000; stroke: #ff0000"/>
     <use xlink:href="#m6e230f4583" x="75.713296" y="295.170441" style="fill: #ff0000; stroke: #ff0000"/>
     <use xlink:href="#m6e230f4583" x="75.884257" y="295.152126" style="fill: #ff0000; stroke: #ff0000"/>
     <use xlink:href="#m6e230f4583" x="76.055218" y="295.11474" style="fill: #ff0000; stroke: #ff0000"/>
     <use xlink:href="#m6e230f4583" x="76.226178" y="295.098771" style="fill: #ff0000; stroke: #ff0000"/>
     <use xlink:href="#m6e230f4583" x="76.397139" y="295.066077" style="fill: #ff0000; stroke: #ff0000"/>
     <use xlink:href="#m6e230f4583" x="76.5681" y="295.032853" style="fill: #ff0000; stroke: #ff0000"/>
     <use xlink:href="#m6e230f4583" x="76.739061" y="294.973292" style="fill: #ff0000; stroke: #ff0000"/>
     <use xlink:href="#m6e230f4583" x="76.910022" y="294.942792" style="fill: #ff0000; stroke: #ff0000"/>
     <use xlink:href="#m6e230f4583" x="77.080982" y="294.904649" style="fill: #ff0000; stroke: #ff0000"/>
     <use xlink:href="#m6e230f4583" x="90.757846" y="291.512916" style="fill: #ff0000; stroke: #ff0000"/>
     <use xlink:href="#m6e230f4583" x="107.853925" y="286.67499" style="fill: #ff0000; stroke: #ff0000"/>
     <use xlink:href="#m6e230f4583" x="124.950004" y="281.615166" style="fill: #ff0000; stroke: #ff0000"/>
     <use xlink:href="#m6e230f4583" x="142.046084" y="275.790053" style="fill: #ff0000; stroke: #ff0000"/>
     <use xlink:href="#m6e230f4583" x="159.142163" y="270.765724" style="fill: #ff0000; stroke: #ff0000"/>
     <use xlink:href="#m6e230f4583" x="176.238242" y="265.322726" style="fill: #ff0000; stroke: #ff0000"/>
     <use xlink:href="#m6e230f4583" x="193.334321" y="259.309015" style="fill: #ff0000; stroke: #ff0000"/>
     <use xlink:href="#m6e230f4583" x="210.430401" y="253.484659" style="fill: #ff0000; stroke: #ff0000"/>
     <use xlink:href="#m6e230f4583" x="227.52648" y="248.449507" style="fill: #ff0000; stroke: #ff0000"/>
     <use xlink:href="#m6e230f4583" x="244.622559" y="240.988619" style="fill: #ff0000; stroke: #ff0000"/>
     <use xlink:href="#m6e230f4583" x="261.718639" y="234.650765" style="fill: #ff0000; stroke: #ff0000"/>
     <use xlink:href="#m6e230f4583" x="278.814718" y="230.950405" style="fill: #ff0000; stroke: #ff0000"/>
     <use xlink:href="#m6e230f4583" x="295.910797" y="223.00508" style="fill: #ff0000; stroke: #ff0000"/>
     <use xlink:href="#m6e230f4583" x="313.006876" y="219.580502" style="fill: #ff0000; stroke: #ff0000"/>
     <use xlink:href="#m6e230f4583" x="330.102956" y="213.245297" style="fill: #ff0000; stroke: #ff0000"/>
     <use xlink:href="#m6e230f4583" x="347.199035" y="206.228129" style="fill: #ff0000; stroke: #ff0000"/>
     <use xlink:href="#m6e230f4583" x="364.295114" y="198.841332" style="fill: #ff0000; stroke: #ff0000"/>
     <use xlink:href="#m6e230f4583" x="381.391193" y="192.519901" style="fill: #ff0000; stroke: #ff0000"/>
     <use xlink:href="#m6e230f4583" x="398.487273" y="186.592997" style="fill: #ff0000; stroke: #ff0000"/>
    </g>
   </g>
   <g id="PathCollection_3">
    <defs>
     <path id="m1f45200db2" d="M 0 3 
C 0.795609 3 1.55874 2.683901 2.12132 2.12132 
C 2.683901 1.55874 3 0.795609 3 0 
C 3 -0.795609 2.683901 -1.55874 2.12132 -2.12132 
C 1.55874 -2.683901 0.795609 -3 0 -3 
C -0.795609 -3 -1.55874 -2.683901 -2.12132 -2.12132 
C -2.683901 -1.55874 -3 -0.795609 -3 0 
C -3 0.795609 -2.683901 1.55874 -2.12132 2.12132 
C -1.55874 2.683901 -0.795609 3 0 3 
z
" style="stroke: #0000ff"/>
    </defs>
    <g clip-path="url(#p56c7e9026c)">
     <use xlink:href="#m1f45200db2" x="73.832727" y="295.481189" style="fill: #0000ff; stroke: #0000ff"/>
     <use xlink:href="#m1f45200db2" x="74.003688" y="295.449327" style="fill: #0000ff; stroke: #0000ff"/>
     <use xlink:href="#m1f45200db2" x="74.174649" y="295.411789" style="fill: #0000ff; stroke: #0000ff"/>
     <use xlink:href="#m1f45200db2" x="74.34561" y="295.353439" style="fill: #0000ff; stroke: #0000ff"/>
     <use xlink:href="#m1f45200db2" x="74.51657" y="295.316809" style="fill: #0000ff; stroke: #0000ff"/>
     <use xlink:href="#m1f45200db2" x="74.687531" y="295.257475" style="fill: #0000ff; stroke: #0000ff"/>
     <use xlink:href="#m1f45200db2" x="74.858492" y="295.189286" style="fill: #0000ff; stroke: #0000ff"/>
     <use xlink:href="#m1f45200db2" x="75.029453" y="295.142364" style="fill: #0000ff; stroke: #0000ff"/>
     <use xlink:href="#m1f45200db2" x="75.200414" y="295.070693" style="fill: #0000ff; stroke: #0000ff"/>
     <use xlink:href="#m1f45200db2" x="75.371374" y="295.028766" style="fill: #0000ff; stroke: #0000ff"/>
     <use xlink:href="#m1f45200db2" x="75.542335" y="294.948241" style="fill: #0000ff; stroke: #0000ff"/>
     <use xlink:href="#m1f45200db2" x="75.713296" y="294.892313" style="fill: #0000ff; stroke: #0000ff"/>
     <use xlink:href="#m1f45200db2" x="75.884257" y="294.798543" style="fill: #0000ff; stroke: #0000ff"/>
     <use xlink:href="#m1f45200db2" x="76.055218" y="294.761233" style="fill: #0000ff; stroke: #0000ff"/>
     <use xlink:href="#m1f45200db2" x="76.226178" y="294.684719" style="fill: #0000ff; stroke: #0000ff"/>
     <use xlink:href="#m1f45200db2" x="76.397139" y="294.614638" style="fill: #0000ff; stroke: #0000ff"/>
     <use xlink:href="#m1f45200db2" x="76.5681" y="294.555682" style="fill: #0000ff; stroke: #0000ff"/>
     <use xlink:href="#m1f45200db2" x="76.739061" y="294.476822" style="fill: #0000ff; stroke: #0000ff"/>
     <use xlink:href="#m1f45200db2" x="76.910022" y="294.41658" style="fill: #0000ff; stroke: #0000ff"/>
     <use xlink:href="#m1f45200db2" x="77.080982" y="294.372836" style="fill: #0000ff; stroke: #0000ff"/>
     <use xlink:href="#m1f45200db2" x="90.757846" y="287.318584" style="fill: #0000ff; stroke: #0000ff"/>
     <use xlink:href="#m1f45200db2" x="107.853925" y="276.700726" style="fill: #0000ff; stroke: #0000ff"/>
     <use xlink:href="#m1f45200db2" x="124.950004" y="265.721188" style="fill: #0000ff; stroke: #0000ff"/>
     <use xlink:href="#m1f45200db2" x="142.046084" y="254.554792" style="fill: #0000ff; stroke: #0000ff"/>
     <use xlink:href="#m1f45200db2" x="159.142163" y="240.874038" style="fill: #0000ff; stroke: #0000ff"/>
     <use xlink:href="#m1f45200db2" x="176.238242" y="229.809206" style="fill: #0000ff; stroke: #0000ff"/>
     <use xlink:href="#m1f45200db2" x="193.334321" y="217.349418" style="fill: #0000ff; stroke: #0000ff"/>
     <use xlink:href="#m1f45200db2" x="210.430401" y="206.00169" style="fill: #0000ff; stroke: #0000ff"/>
     <use xlink:href="#m1f45200db2" x="227.52648" y="188.651452" style="fill: #0000ff; stroke: #0000ff"/>
     <use xlink:href="#m1f45200db2" x="244.622559" y="177.058366" style="fill: #0000ff; stroke: #0000ff"/>
     <use xlink:href="#m1f45200db2" x="261.718639" y="165.228851" style="fill: #0000ff; stroke: #0000ff"/>
     <use xlink:href="#m1f45200db2" x="278.814718" y="150.81149" style="fill: #0000ff; stroke: #0000ff"/>
     <use xlink:href="#m1f45200db2" x="295.910797" y="139.015275" style="fill: #0000ff; stroke: #0000ff"/>
     <use xlink:href="#m1f45200db2" x="313.006876" y="124.654751" style="fill: #0000ff; stroke: #0000ff"/>
     <use xlink:href="#m1f45200db2" x="330.102956" y="109.962213" style="fill: #0000ff; stroke: #0000ff"/>
     <use xlink:href="#m1f45200db2" x="347.199035" y="96.020964" style="fill: #0000ff; stroke: #0000ff"/>
     <use xlink:href="#m1f45200db2" x="364.295114" y="77.471405" style="fill: #0000ff; stroke: #0000ff"/>
     <use xlink:href="#m1f45200db2" x="381.391193" y="68.152843" style="fill: #0000ff; stroke: #0000ff"/>
     <use xlink:href="#m1f45200db2" x="398.487273" y="53.568" style="fill: #0000ff; stroke: #0000ff"/>
    </g>
   </g>
   <g id="PathCollection_4">
    <defs>
     <path id="m65f45d17ea" d="M 0 3 
C 0.795609 3 1.55874 2.683901 2.12132 2.12132 
C 2.683901 1.55874 3 0.795609 3 0 
C 3 -0.795609 2.683901 -1.55874 2.12132 -2.12132 
C 1.55874 -2.683901 0.795609 -3 0 -3 
C -0.795609 -3 -1.55874 -2.683901 -2.12132 -2.12132 
C -2.683901 -1.55874 -3 -0.795609 -3 0 
C -3 0.795609 -2.683901 1.55874 -2.12132 2.12132 
C -1.55874 2.683901 -0.795609 3 0 3 
z
" style="stroke: #008000"/>
    </defs>
    <g clip-path="url(#p56c7e9026c)">
     <use xlink:href="#m65f45d17ea" x="73.832727" y="295.482627" style="fill: #008000; stroke: #008000"/>
     <use xlink:href="#m65f45d17ea" x="74.003688" y="295.45576" style="fill: #008000; stroke: #008000"/>
     <use xlink:href="#m65f45d17ea" x="74.174649" y="295.426093" style="fill: #008000; stroke: #008000"/>
     <use xlink:href="#m65f45d17ea" x="74.34561" y="295.396577" style="fill: #008000; stroke: #008000"/>
     <use xlink:href="#m65f45d17ea" x="74.51657" y="295.370089" style="fill: #008000; stroke: #008000"/>
     <use xlink:href="#m65f45d17ea" x="74.687531" y="295.320669" style="fill: #008000; stroke: #008000"/>
     <use xlink:href="#m65f45d17ea" x="74.858492" y="295.26754" style="fill: #008000; stroke: #008000"/>
     <use xlink:href="#m65f45d17ea" x="75.029453" y="295.263151" style="fill: #008000; stroke: #008000"/>
     <use xlink:href="#m65f45d17ea" x="75.200414" y="295.194659" style="fill: #008000; stroke: #008000"/>
     <use xlink:href="#m65f45d17ea" x="75.371374" y="295.155381" style="fill: #008000; stroke: #008000"/>
     <use xlink:href="#m65f45d17ea" x="75.542335" y="295.129649" style="fill: #008000; stroke: #008000"/>
     <use xlink:href="#m65f45d17ea" x="75.713296" y="295.085678" style="fill: #008000; stroke: #008000"/>
     <use xlink:href="#m65f45d17ea" x="75.884257" y="295.02362" style="fill: #008000; stroke: #008000"/>
     <use xlink:href="#m65f45d17ea" x="76.055218" y="294.999553" style="fill: #008000; stroke: #008000"/>
     <use xlink:href="#m65f45d17ea" x="76.226178" y="294.946652" style="fill: #008000; stroke: #008000"/>
     <use xlink:href="#m65f45d17ea" x="76.397139" y="294.940446" style="fill: #008000; stroke: #008000"/>
     <use xlink:href="#m65f45d17ea" x="76.5681" y="294.866051" style="fill: #008000; stroke: #008000"/>
     <use xlink:href="#m65f45d17ea" x="76.739061" y="294.823367" style="fill: #008000; stroke: #008000"/>
     <use xlink:href="#m65f45d17ea" x="76.910022" y="294.779547" style="fill: #008000; stroke: #008000"/>
     <use xlink:href="#m65f45d17ea" x="77.080982" y="294.77372" style="fill: #008000; stroke: #008000"/>
     <use xlink:href="#m65f45d17ea" x="90.757846" y="290.338721" style="fill: #008000; stroke: #008000"/>
     <use xlink:href="#m65f45d17ea" x="107.853925" y="284.622967" style="fill: #008000; stroke: #008000"/>
     <use xlink:href="#m65f45d17ea" x="124.950004" y="278.21753" style="fill: #008000; stroke: #008000"/>
     <use xlink:href="#m65f45d17ea" x="142.046084" y="271.271275" style="fill: #008000; stroke: #008000"/>
     <use xlink:href="#m65f45d17ea" x="159.142163" y="264.129535" style="fill: #008000; stroke: #008000"/>
     <use xlink:href="#m65f45d17ea" x="176.238242" y="256.995514" style="fill: #008000; stroke: #008000"/>
     <use xlink:href="#m65f45d17ea" x="193.334321" y="248.674811" style="fill: #008000; stroke: #008000"/>
     <use xlink:href="#m65f45d17ea" x="210.430401" y="242.061704" style="fill: #008000; stroke: #008000"/>
     <use xlink:href="#m65f45d17ea" x="227.52648" y="234.952961" style="fill: #008000; stroke: #008000"/>
     <use xlink:href="#m65f45d17ea" x="244.622559" y="227.976433" style="fill: #008000; stroke: #008000"/>
     <use xlink:href="#m65f45d17ea" x="261.718639" y="220.505328" style="fill: #008000; stroke: #008000"/>
     <use xlink:href="#m65f45d17ea" x="278.814718" y="215.924037" style="fill: #008000; stroke: #008000"/>
     <use xlink:href="#m65f45d17ea" x="295.910797" y="204.004234" style="fill: #008000; stroke: #008000"/>
     <use xlink:href="#m65f45d17ea" x="313.006876" y="198.811362" style="fill: #008000; stroke: #008000"/>
     <use xlink:href="#m65f45d17ea" x="330.102956" y="188.559954" style="fill: #008000; stroke: #008000"/>
     <use xlink:href="#m65f45d17ea" x="347.199035" y="182.48426" style="fill: #008000; stroke: #008000"/>
     <use xlink:href="#m65f45d17ea" x="364.295114" y="169.208249" style="fill: #008000; stroke: #008000"/>
     <use xlink:href="#m65f45d17ea" x="381.391193" y="165.5981" style="fill: #008000; stroke: #008000"/>
     <use xlink:href="#m65f45d17ea" x="398.487273" y="155.077796" style="fill: #008000; stroke: #008000"/>
    </g>
   </g>
   <g id="matplotlib.axis_1">
    <g id="xtick_1">
     <g id="line2d_1">
      <defs>
       <path id="m0b621513b3" d="M 0 0 
L 0 3.5 
" style="stroke: #000000; stroke-width: 0.8"/>
      </defs>
      <g>
       <use xlink:href="#m0b621513b3" x="73.661766" y="307.584" style="stroke: #000000; stroke-width: 0.8"/>
      </g>
     </g>
     <g id="text_1">
      <!-- 0 -->
      <g transform="translate(70.480516 322.182437) scale(0.1 -0.1)">
       <defs>
        <path id="DejaVuSans-30" d="M 2034 4250 
Q 1547 4250 1301 3770 
Q 1056 3291 1056 2328 
Q 1056 1369 1301 889 
Q 1547 409 2034 409 
Q 2525 409 2770 889 
Q 3016 1369 3016 2328 
Q 3016 3291 2770 3770 
Q 2525 4250 2034 4250 
z
M 2034 4750 
Q 2819 4750 3233 4129 
Q 3647 3509 3647 2328 
Q 3647 1150 3233 529 
Q 2819 -91 2034 -91 
Q 1250 -91 836 529 
Q 422 1150 422 2328 
Q 422 3509 836 4129 
Q 1250 4750 2034 4750 
z
" transform="scale(0.015625)"/>
       </defs>
       <use xlink:href="#DejaVuSans-30"/>
      </g>
     </g>
    </g>
    <g id="xtick_2">
     <g id="line2d_2">
      <g>
       <use xlink:href="#m0b621513b3" x="116.401965" y="307.584" style="stroke: #000000; stroke-width: 0.8"/>
      </g>
     </g>
     <g id="text_2">
      <!-- 2500 -->
      <g transform="translate(103.676965 322.182437) scale(0.1 -0.1)">
       <defs>
        <path id="DejaVuSans-32" d="M 1228 531 
L 3431 531 
L 3431 0 
L 469 0 
L 469 531 
Q 828 903 1448 1529 
Q 2069 2156 2228 2338 
Q 2531 2678 2651 2914 
Q 2772 3150 2772 3378 
Q 2772 3750 2511 3984 
Q 2250 4219 1831 4219 
Q 1534 4219 1204 4116 
Q 875 4013 500 3803 
L 500 4441 
Q 881 4594 1212 4672 
Q 1544 4750 1819 4750 
Q 2544 4750 2975 4387 
Q 3406 4025 3406 3419 
Q 3406 3131 3298 2873 
Q 3191 2616 2906 2266 
Q 2828 2175 2409 1742 
Q 1991 1309 1228 531 
z
" transform="scale(0.015625)"/>
        <path id="DejaVuSans-35" d="M 691 4666 
L 3169 4666 
L 3169 4134 
L 1269 4134 
L 1269 2991 
Q 1406 3038 1543 3061 
Q 1681 3084 1819 3084 
Q 2600 3084 3056 2656 
Q 3513 2228 3513 1497 
Q 3513 744 3044 326 
Q 2575 -91 1722 -91 
Q 1428 -91 1123 -41 
Q 819 9 494 109 
L 494 744 
Q 775 591 1075 516 
Q 1375 441 1709 441 
Q 2250 441 2565 725 
Q 2881 1009 2881 1497 
Q 2881 1984 2565 2268 
Q 2250 2553 1709 2553 
Q 1456 2553 1204 2497 
Q 953 2441 691 2322 
L 691 4666 
z
" transform="scale(0.015625)"/>
       </defs>
       <use xlink:href="#DejaVuSans-32"/>
       <use xlink:href="#DejaVuSans-35" x="63.623047"/>
       <use xlink:href="#DejaVuSans-30" x="127.246094"/>
       <use xlink:href="#DejaVuSans-30" x="190.869141"/>
      </g>
     </g>
    </g>
    <g id="xtick_3">
     <g id="line2d_3">
      <g>
       <use xlink:href="#m0b621513b3" x="159.142163" y="307.584" style="stroke: #000000; stroke-width: 0.8"/>
      </g>
     </g>
     <g id="text_3">
      <!-- 5000 -->
      <g transform="translate(146.417163 322.182437) scale(0.1 -0.1)">
       <use xlink:href="#DejaVuSans-35"/>
       <use xlink:href="#DejaVuSans-30" x="63.623047"/>
       <use xlink:href="#DejaVuSans-30" x="127.246094"/>
       <use xlink:href="#DejaVuSans-30" x="190.869141"/>
      </g>
     </g>
    </g>
    <g id="xtick_4">
     <g id="line2d_4">
      <g>
       <use xlink:href="#m0b621513b3" x="201.882361" y="307.584" style="stroke: #000000; stroke-width: 0.8"/>
      </g>
     </g>
     <g id="text_4">
      <!-- 7500 -->
      <g transform="translate(189.157361 322.182437) scale(0.1 -0.1)">
       <defs>
        <path id="DejaVuSans-37" d="M 525 4666 
L 3525 4666 
L 3525 4397 
L 1831 0 
L 1172 0 
L 2766 4134 
L 525 4134 
L 525 4666 
z
" transform="scale(0.015625)"/>
       </defs>
       <use xlink:href="#DejaVuSans-37"/>
       <use xlink:href="#DejaVuSans-35" x="63.623047"/>
       <use xlink:href="#DejaVuSans-30" x="127.246094"/>
       <use xlink:href="#DejaVuSans-30" x="190.869141"/>
      </g>
     </g>
    </g>
    <g id="xtick_5">
     <g id="line2d_5">
      <g>
       <use xlink:href="#m0b621513b3" x="244.622559" y="307.584" style="stroke: #000000; stroke-width: 0.8"/>
      </g>
     </g>
     <g id="text_5">
      <!-- 10000 -->
      <g transform="translate(228.716309 322.182437) scale(0.1 -0.1)">
       <defs>
        <path id="DejaVuSans-31" d="M 794 531 
L 1825 531 
L 1825 4091 
L 703 3866 
L 703 4441 
L 1819 4666 
L 2450 4666 
L 2450 531 
L 3481 531 
L 3481 0 
L 794 0 
L 794 531 
z
" transform="scale(0.015625)"/>
       </defs>
       <use xlink:href="#DejaVuSans-31"/>
       <use xlink:href="#DejaVuSans-30" x="63.623047"/>
       <use xlink:href="#DejaVuSans-30" x="127.246094"/>
       <use xlink:href="#DejaVuSans-30" x="190.869141"/>
       <use xlink:href="#DejaVuSans-30" x="254.492188"/>
      </g>
     </g>
    </g>
    <g id="xtick_6">
     <g id="line2d_6">
      <g>
       <use xlink:href="#m0b621513b3" x="287.362757" y="307.584" style="stroke: #000000; stroke-width: 0.8"/>
      </g>
     </g>
     <g id="text_6">
      <!-- 12500 -->
      <g transform="translate(271.456507 322.182437) scale(0.1 -0.1)">
       <use xlink:href="#DejaVuSans-31"/>
       <use xlink:href="#DejaVuSans-32" x="63.623047"/>
       <use xlink:href="#DejaVuSans-35" x="127.246094"/>
       <use xlink:href="#DejaVuSans-30" x="190.869141"/>
       <use xlink:href="#DejaVuSans-30" x="254.492188"/>
      </g>
     </g>
    </g>
    <g id="xtick_7">
     <g id="line2d_7">
      <g>
       <use xlink:href="#m0b621513b3" x="330.102956" y="307.584" style="stroke: #000000; stroke-width: 0.8"/>
      </g>
     </g>
     <g id="text_7">
      <!-- 15000 -->
      <g transform="translate(314.196706 322.182437) scale(0.1 -0.1)">
       <use xlink:href="#DejaVuSans-31"/>
       <use xlink:href="#DejaVuSans-35" x="63.623047"/>
       <use xlink:href="#DejaVuSans-30" x="127.246094"/>
       <use xlink:href="#DejaVuSans-30" x="190.869141"/>
       <use xlink:href="#DejaVuSans-30" x="254.492188"/>
      </g>
     </g>
    </g>
    <g id="xtick_8">
     <g id="line2d_8">
      <g>
       <use xlink:href="#m0b621513b3" x="372.843154" y="307.584" style="stroke: #000000; stroke-width: 0.8"/>
      </g>
     </g>
     <g id="text_8">
      <!-- 17500 -->
      <g transform="translate(356.936904 322.182437) scale(0.1 -0.1)">
       <use xlink:href="#DejaVuSans-31"/>
       <use xlink:href="#DejaVuSans-37" x="63.623047"/>
       <use xlink:href="#DejaVuSans-35" x="127.246094"/>
       <use xlink:href="#DejaVuSans-30" x="190.869141"/>
       <use xlink:href="#DejaVuSans-30" x="254.492188"/>
      </g>
     </g>
    </g>
   </g>
   <g id="matplotlib.axis_2">
    <g id="ytick_1">
     <g id="line2d_9">
      <defs>
       <path id="m77443530e0" d="M 0 0 
L -3.5 0 
" style="stroke: #000000; stroke-width: 0.8"/>
      </defs>
      <g>
       <use xlink:href="#m77443530e0" x="57.6" y="295.501623" style="stroke: #000000; stroke-width: 0.8"/>
      </g>
     </g>
     <g id="text_9">
      <!-- 0 -->
      <g transform="translate(44.2375 299.300841) scale(0.1 -0.1)">
       <use xlink:href="#DejaVuSans-30"/>
      </g>
     </g>
    </g>
    <g id="ytick_2">
     <g id="line2d_10">
      <g>
       <use xlink:href="#m77443530e0" x="57.6" y="257.660979" style="stroke: #000000; stroke-width: 0.8"/>
      </g>
     </g>
     <g id="text_10">
      <!-- 50000 -->
      <g transform="translate(18.7875 261.460198) scale(0.1 -0.1)">
       <use xlink:href="#DejaVuSans-35"/>
       <use xlink:href="#DejaVuSans-30" x="63.623047"/>
       <use xlink:href="#DejaVuSans-30" x="127.246094"/>
       <use xlink:href="#DejaVuSans-30" x="190.869141"/>
       <use xlink:href="#DejaVuSans-30" x="254.492188"/>
      </g>
     </g>
    </g>
    <g id="ytick_3">
     <g id="line2d_11">
      <g>
       <use xlink:href="#m77443530e0" x="57.6" y="219.820336" style="stroke: #000000; stroke-width: 0.8"/>
      </g>
     </g>
     <g id="text_11">
      <!-- 100000 -->
      <g transform="translate(12.425 223.619555) scale(0.1 -0.1)">
       <use xlink:href="#DejaVuSans-31"/>
       <use xlink:href="#DejaVuSans-30" x="63.623047"/>
       <use xlink:href="#DejaVuSans-30" x="127.246094"/>
       <use xlink:href="#DejaVuSans-30" x="190.869141"/>
       <use xlink:href="#DejaVuSans-30" x="254.492188"/>
       <use xlink:href="#DejaVuSans-30" x="318.115234"/>
      </g>
     </g>
    </g>
    <g id="ytick_4">
     <g id="line2d_12">
      <g>
       <use xlink:href="#m77443530e0" x="57.6" y="181.979693" style="stroke: #000000; stroke-width: 0.8"/>
      </g>
     </g>
     <g id="text_12">
      <!-- 150000 -->
      <g transform="translate(12.425 185.778912) scale(0.1 -0.1)">
       <use xlink:href="#DejaVuSans-31"/>
       <use xlink:href="#DejaVuSans-35" x="63.623047"/>
       <use xlink:href="#DejaVuSans-30" x="127.246094"/>
       <use xlink:href="#DejaVuSans-30" x="190.869141"/>
       <use xlink:href="#DejaVuSans-30" x="254.492188"/>
       <use xlink:href="#DejaVuSans-30" x="318.115234"/>
      </g>
     </g>
    </g>
    <g id="ytick_5">
     <g id="line2d_13">
      <g>
       <use xlink:href="#m77443530e0" x="57.6" y="144.13905" style="stroke: #000000; stroke-width: 0.8"/>
      </g>
     </g>
     <g id="text_13">
      <!-- 200000 -->
      <g transform="translate(12.425 147.938269) scale(0.1 -0.1)">
       <use xlink:href="#DejaVuSans-32"/>
       <use xlink:href="#DejaVuSans-30" x="63.623047"/>
       <use xlink:href="#DejaVuSans-30" x="127.246094"/>
       <use xlink:href="#DejaVuSans-30" x="190.869141"/>
       <use xlink:href="#DejaVuSans-30" x="254.492188"/>
       <use xlink:href="#DejaVuSans-30" x="318.115234"/>
      </g>
     </g>
    </g>
    <g id="ytick_6">
     <g id="line2d_14">
      <g>
       <use xlink:href="#m77443530e0" x="57.6" y="106.298407" style="stroke: #000000; stroke-width: 0.8"/>
      </g>
     </g>
     <g id="text_14">
      <!-- 250000 -->
      <g transform="translate(12.425 110.097625) scale(0.1 -0.1)">
       <use xlink:href="#DejaVuSans-32"/>
       <use xlink:href="#DejaVuSans-35" x="63.623047"/>
       <use xlink:href="#DejaVuSans-30" x="127.246094"/>
       <use xlink:href="#DejaVuSans-30" x="190.869141"/>
       <use xlink:href="#DejaVuSans-30" x="254.492188"/>
       <use xlink:href="#DejaVuSans-30" x="318.115234"/>
      </g>
     </g>
    </g>
    <g id="ytick_7">
     <g id="line2d_15">
      <g>
       <use xlink:href="#m77443530e0" x="57.6" y="68.457763" style="stroke: #000000; stroke-width: 0.8"/>
      </g>
     </g>
     <g id="text_15">
      <!-- 300000 -->
      <g transform="translate(12.425 72.256982) scale(0.1 -0.1)">
       <defs>
        <path id="DejaVuSans-33" d="M 2597 2516 
Q 3050 2419 3304 2112 
Q 3559 1806 3559 1356 
Q 3559 666 3084 287 
Q 2609 -91 1734 -91 
Q 1441 -91 1130 -33 
Q 819 25 488 141 
L 488 750 
Q 750 597 1062 519 
Q 1375 441 1716 441 
Q 2309 441 2620 675 
Q 2931 909 2931 1356 
Q 2931 1769 2642 2001 
Q 2353 2234 1838 2234 
L 1294 2234 
L 1294 2753 
L 1863 2753 
Q 2328 2753 2575 2939 
Q 2822 3125 2822 3475 
Q 2822 3834 2567 4026 
Q 2313 4219 1838 4219 
Q 1578 4219 1281 4162 
Q 984 4106 628 3988 
L 628 4550 
Q 988 4650 1302 4700 
Q 1616 4750 1894 4750 
Q 2613 4750 3031 4423 
Q 3450 4097 3450 3541 
Q 3450 3153 3228 2886 
Q 3006 2619 2597 2516 
z
" transform="scale(0.015625)"/>
       </defs>
       <use xlink:href="#DejaVuSans-33"/>
       <use xlink:href="#DejaVuSans-30" x="63.623047"/>
       <use xlink:href="#DejaVuSans-30" x="127.246094"/>
       <use xlink:href="#DejaVuSans-30" x="190.869141"/>
       <use xlink:href="#DejaVuSans-30" x="254.492188"/>
       <use xlink:href="#DejaVuSans-30" x="318.115234"/>
      </g>
     </g>
    </g>
   </g>
   <g id="patch_3">
    <path d="M 57.6 307.584 
L 57.6 41.472 
" style="fill: none; stroke: #000000; stroke-width: 0.8; stroke-linejoin: miter; stroke-linecap: square"/>
   </g>
   <g id="patch_4">
    <path d="M 414.72 307.584 
L 414.72 41.472 
" style="fill: none; stroke: #000000; stroke-width: 0.8; stroke-linejoin: miter; stroke-linecap: square"/>
   </g>
   <g id="patch_5">
    <path d="M 57.6 307.584 
L 414.72 307.584 
" style="fill: none; stroke: #000000; stroke-width: 0.8; stroke-linejoin: miter; stroke-linecap: square"/>
   </g>
   <g id="patch_6">
    <path d="M 57.6 41.472 
L 414.72 41.472 
" style="fill: none; stroke: #000000; stroke-width: 0.8; stroke-linejoin: miter; stroke-linecap: square"/>
   </g>
   <g id="text_16">
    <!-- Dual/Quick -->
    <g transform="translate(203.406563 35.472) scale(0.12 -0.12)">
     <defs>
      <path id="DejaVuSans-44" d="M 1259 4147 
L 1259 519 
L 2022 519 
Q 2988 519 3436 956 
Q 3884 1394 3884 2338 
Q 3884 3275 3436 3711 
Q 2988 4147 2022 4147 
L 1259 4147 
z
M 628 4666 
L 1925 4666 
Q 3281 4666 3915 4102 
Q 4550 3538 4550 2338 
Q 4550 1131 3912 565 
Q 3275 0 1925 0 
L 628 0 
L 628 4666 
z
" transform="scale(0.015625)"/>
      <path id="DejaVuSans-75" d="M 544 1381 
L 544 3500 
L 1119 3500 
L 1119 1403 
Q 1119 906 1312 657 
Q 1506 409 1894 409 
Q 2359 409 2629 706 
Q 2900 1003 2900 1516 
L 2900 3500 
L 3475 3500 
L 3475 0 
L 2900 0 
L 2900 538 
Q 2691 219 2414 64 
Q 2138 -91 1772 -91 
Q 1169 -91 856 284 
Q 544 659 544 1381 
z
M 1991 3584 
L 1991 3584 
z
" transform="scale(0.015625)"/>
      <path id="DejaVuSans-61" d="M 2194 1759 
Q 1497 1759 1228 1600 
Q 959 1441 959 1056 
Q 959 750 1161 570 
Q 1363 391 1709 391 
Q 2188 391 2477 730 
Q 2766 1069 2766 1631 
L 2766 1759 
L 2194 1759 
z
M 3341 1997 
L 3341 0 
L 2766 0 
L 2766 531 
Q 2569 213 2275 61 
Q 1981 -91 1556 -91 
Q 1019 -91 701 211 
Q 384 513 384 1019 
Q 384 1609 779 1909 
Q 1175 2209 1959 2209 
L 2766 2209 
L 2766 2266 
Q 2766 2663 2505 2880 
Q 2244 3097 1772 3097 
Q 1472 3097 1187 3025 
Q 903 2953 641 2809 
L 641 3341 
Q 956 3463 1253 3523 
Q 1550 3584 1831 3584 
Q 2591 3584 2966 3190 
Q 3341 2797 3341 1997 
z
" transform="scale(0.015625)"/>
      <path id="DejaVuSans-6c" d="M 603 4863 
L 1178 4863 
L 1178 0 
L 603 0 
L 603 4863 
z
" transform="scale(0.015625)"/>
      <path id="DejaVuSans-2f" d="M 1625 4666 
L 2156 4666 
L 531 -594 
L 0 -594 
L 1625 4666 
z
" transform="scale(0.015625)"/>
      <path id="DejaVuSans-51" d="M 2522 4238 
Q 1834 4238 1429 3725 
Q 1025 3213 1025 2328 
Q 1025 1447 1429 934 
Q 1834 422 2522 422 
Q 3209 422 3611 934 
Q 4013 1447 4013 2328 
Q 4013 3213 3611 3725 
Q 3209 4238 2522 4238 
z
M 3406 84 
L 4238 -825 
L 3475 -825 
L 2784 -78 
Q 2681 -84 2626 -87 
Q 2572 -91 2522 -91 
Q 1538 -91 948 567 
Q 359 1225 359 2328 
Q 359 3434 948 4092 
Q 1538 4750 2522 4750 
Q 3503 4750 4090 4092 
Q 4678 3434 4678 2328 
Q 4678 1516 4351 937 
Q 4025 359 3406 84 
z
" transform="scale(0.015625)"/>
      <path id="DejaVuSans-69" d="M 603 3500 
L 1178 3500 
L 1178 0 
L 603 0 
L 603 3500 
z
M 603 4863 
L 1178 4863 
L 1178 4134 
L 603 4134 
L 603 4863 
z
" transform="scale(0.015625)"/>
      <path id="DejaVuSans-63" d="M 3122 3366 
L 3122 2828 
Q 2878 2963 2633 3030 
Q 2388 3097 2138 3097 
Q 1578 3097 1268 2742 
Q 959 2388 959 1747 
Q 959 1106 1268 751 
Q 1578 397 2138 397 
Q 2388 397 2633 464 
Q 2878 531 3122 666 
L 3122 134 
Q 2881 22 2623 -34 
Q 2366 -91 2075 -91 
Q 1284 -91 818 406 
Q 353 903 353 1747 
Q 353 2603 823 3093 
Q 1294 3584 2113 3584 
Q 2378 3584 2631 3529 
Q 2884 3475 3122 3366 
z
" transform="scale(0.015625)"/>
      <path id="DejaVuSans-6b" d="M 581 4863 
L 1159 4863 
L 1159 1991 
L 2875 3500 
L 3609 3500 
L 1753 1863 
L 3688 0 
L 2938 0 
L 1159 1709 
L 1159 0 
L 581 0 
L 581 4863 
z
" transform="scale(0.015625)"/>
     </defs>
     <use xlink:href="#DejaVuSans-44"/>
     <use xlink:href="#DejaVuSans-75" x="77.001953"/>
     <use xlink:href="#DejaVuSans-61" x="140.380859"/>
     <use xlink:href="#DejaVuSans-6c" x="201.660156"/>
     <use xlink:href="#DejaVuSans-2f" x="229.443359"/>
     <use xlink:href="#DejaVuSans-51" x="263.134766"/>
     <use xlink:href="#DejaVuSans-75" x="341.845703"/>
     <use xlink:href="#DejaVuSans-69" x="405.224609"/>
     <use xlink:href="#DejaVuSans-63" x="433.007812"/>
     <use xlink:href="#DejaVuSans-6b" x="487.988281"/>
    </g>
   </g>
   <g id="legend_1">
    <g id="patch_7">
     <path d="M 64.6 108.1845 
L 149.642188 108.1845 
Q 151.642188 108.1845 151.642188 106.1845 
L 151.642188 48.472 
Q 151.642188 46.472 149.642188 46.472 
L 64.6 46.472 
Q 62.6 46.472 62.6 48.472 
L 62.6 106.1845 
Q 62.6 108.1845 64.6 108.1845 
z
" style="fill: #ffffff; opacity: 0.8; stroke: #cccccc; stroke-linejoin: miter"/>
    </g>
    <g id="PathCollection_5">
     <g>
      <use xlink:href="#m08db406496" x="76.6" y="55.445438" style="fill: #ffa500; stroke: #ffa500"/>
     </g>
    </g>
    <g id="text_17">
     <!-- Dual cmp -->
     <g transform="translate(94.6 58.070438) scale(0.1 -0.1)">
      <defs>
       <path id="DejaVuSans-20" transform="scale(0.015625)"/>
       <path id="DejaVuSans-6d" d="M 3328 2828 
Q 3544 3216 3844 3400 
Q 4144 3584 4550 3584 
Q 5097 3584 5394 3201 
Q 5691 2819 5691 2113 
L 5691 0 
L 5113 0 
L 5113 2094 
Q 5113 2597 4934 2840 
Q 4756 3084 4391 3084 
Q 3944 3084 3684 2787 
Q 3425 2491 3425 1978 
L 3425 0 
L 2847 0 
L 2847 2094 
Q 2847 2600 2669 2842 
Q 2491 3084 2119 3084 
Q 1678 3084 1418 2786 
Q 1159 2488 1159 1978 
L 1159 0 
L 581 0 
L 581 3500 
L 1159 3500 
L 1159 2956 
Q 1356 3278 1631 3431 
Q 1906 3584 2284 3584 
Q 2666 3584 2933 3390 
Q 3200 3197 3328 2828 
z
" transform="scale(0.015625)"/>
       <path id="DejaVuSans-70" d="M 1159 525 
L 1159 -1331 
L 581 -1331 
L 581 3500 
L 1159 3500 
L 1159 2969 
Q 1341 3281 1617 3432 
Q 1894 3584 2278 3584 
Q 2916 3584 3314 3078 
Q 3713 2572 3713 1747 
Q 3713 922 3314 415 
Q 2916 -91 2278 -91 
Q 1894 -91 1617 61 
Q 1341 213 1159 525 
z
M 3116 1747 
Q 3116 2381 2855 2742 
Q 2594 3103 2138 3103 
Q 1681 3103 1420 2742 
Q 1159 2381 1159 1747 
Q 1159 1113 1420 752 
Q 1681 391 2138 391 
Q 2594 391 2855 752 
Q 3116 1113 3116 1747 
z
" transform="scale(0.015625)"/>
      </defs>
      <use xlink:href="#DejaVuSans-44"/>
      <use xlink:href="#DejaVuSans-75" x="77.001953"/>
      <use xlink:href="#DejaVuSans-61" x="140.380859"/>
      <use xlink:href="#DejaVuSans-6c" x="201.660156"/>
      <use xlink:href="#DejaVuSans-20" x="229.443359"/>
      <use xlink:href="#DejaVuSans-63" x="261.230469"/>
      <use xlink:href="#DejaVuSans-6d" x="316.210938"/>
      <use xlink:href="#DejaVuSans-70" x="413.623047"/>
     </g>
    </g>
    <g id="PathCollection_6">
     <g>
      <use xlink:href="#m6e230f4583" x="76.6" y="70.123563" style="fill: #ff0000; stroke: #ff0000"/>
     </g>
    </g>
    <g id="text_18">
     <!-- Dual swp -->
     <g transform="translate(94.6 72.748563) scale(0.1 -0.1)">
      <defs>
       <path id="DejaVuSans-73" d="M 2834 3397 
L 2834 2853 
Q 2591 2978 2328 3040 
Q 2066 3103 1784 3103 
Q 1356 3103 1142 2972 
Q 928 2841 928 2578 
Q 928 2378 1081 2264 
Q 1234 2150 1697 2047 
L 1894 2003 
Q 2506 1872 2764 1633 
Q 3022 1394 3022 966 
Q 3022 478 2636 193 
Q 2250 -91 1575 -91 
Q 1294 -91 989 -36 
Q 684 19 347 128 
L 347 722 
Q 666 556 975 473 
Q 1284 391 1588 391 
Q 1994 391 2212 530 
Q 2431 669 2431 922 
Q 2431 1156 2273 1281 
Q 2116 1406 1581 1522 
L 1381 1569 
Q 847 1681 609 1914 
Q 372 2147 372 2553 
Q 372 3047 722 3315 
Q 1072 3584 1716 3584 
Q 2034 3584 2315 3537 
Q 2597 3491 2834 3397 
z
" transform="scale(0.015625)"/>
       <path id="DejaVuSans-77" d="M 269 3500 
L 844 3500 
L 1563 769 
L 2278 3500 
L 2956 3500 
L 3675 769 
L 4391 3500 
L 4966 3500 
L 4050 0 
L 3372 0 
L 2619 2869 
L 1863 0 
L 1184 0 
L 269 3500 
z
" transform="scale(0.015625)"/>
      </defs>
      <use xlink:href="#DejaVuSans-44"/>
      <use xlink:href="#DejaVuSans-75" x="77.001953"/>
      <use xlink:href="#DejaVuSans-61" x="140.380859"/>
      <use xlink:href="#DejaVuSans-6c" x="201.660156"/>
      <use xlink:href="#DejaVuSans-20" x="229.443359"/>
      <use xlink:href="#DejaVuSans-73" x="261.230469"/>
      <use xlink:href="#DejaVuSans-77" x="313.330078"/>
      <use xlink:href="#DejaVuSans-70" x="395.117188"/>
     </g>
    </g>
    <g id="PathCollection_7">
     <g>
      <use xlink:href="#m1f45200db2" x="76.6" y="84.801688" style="fill: #0000ff; stroke: #0000ff"/>
     </g>
    </g>
    <g id="text_19">
     <!-- Quick cmp -->
     <g transform="translate(94.6 87.426688) scale(0.1 -0.1)">
      <use xlink:href="#DejaVuSans-51"/>
      <use xlink:href="#DejaVuSans-75" x="78.710938"/>
      <use xlink:href="#DejaVuSans-69" x="142.089844"/>
      <use xlink:href="#DejaVuSans-63" x="169.873047"/>
      <use xlink:href="#DejaVuSans-6b" x="224.853516"/>
      <use xlink:href="#DejaVuSans-20" x="282.763672"/>
      <use xlink:href="#DejaVuSans-63" x="314.550781"/>
      <use xlink:href="#DejaVuSans-6d" x="369.53125"/>
      <use xlink:href="#DejaVuSans-70" x="466.943359"/>
     </g>
    </g>
    <g id="PathCollection_8">
     <g>
      <use xlink:href="#m65f45d17ea" x="76.6" y="99.479813" style="fill: #008000; stroke: #008000"/>
     </g>
    </g>
    <g id="text_20">
     <!-- Quick swp -->
     <g transform="translate(94.6 102.104813) scale(0.1 -0.1)">
      <use xlink:href="#DejaVuSans-51"/>
      <use xlink:href="#DejaVuSans-75" x="78.710938"/>
      <use xlink:href="#DejaVuSans-69" x="142.089844"/>
      <use xlink:href="#DejaVuSans-63" x="169.873047"/>
      <use xlink:href="#DejaVuSans-6b" x="224.853516"/>
      <use xlink:href="#DejaVuSans-20" x="282.763672"/>
      <use xlink:href="#DejaVuSans-73" x="314.550781"/>
      <use xlink:href="#DejaVuSans-77" x="366.650391"/>
      <use xlink:href="#DejaVuSans-70" x="448.4375"/>
     </g>
    </g>
   </g>
  </g>
 </g>
 <defs>
  <clipPath id="p56c7e9026c">
   <rect x="57.6" y="41.472" width="357.12" height="266.112"/>
  </clipPath>
 </defs>
</svg>
